<svg xmlns="http://www.w3.org/2000/svg" width="15" height="15" viewBox="0 0 15 15"><g fill="#818181" fill-rule="evenodd"><path fill="#231F20" d="M7.515 0c1.683 0 3.311.569 4.628 1.619l.39.307-.345.351-1.332 1.337a5.105 5.105 0 0 1 1.534 2.342h2.591V7.59l-.005.01c-.059 4.134-3.449 7.441-7.569 7.381-4.121-.06-7.417-3.461-7.358-7.6C.109 3.287 3.434 0 7.515 0z"/><path fill="#FF4713" d="M10.855 3.609a5.105 5.105 0 0 1 1.534 2.342H9.512l-.128.128-2.181 2.193-.755.757h5.127a4.335 4.335 0 0 1-5.595 2.54 4.36 4.36 0 0 1-2.531-5.614 4.335 4.335 0 0 1 6.567-2.024l.301.213.262-.263.276-.272z"/><path fill="#FFF" d="m10.505 3.332 1.367-1.371a7.012 7.012 0 0 0-9.869 1.158 7.063 7.063 0 0 0 1.154 9.901 7.013 7.013 0 0 0 9.869-1.153 7.068 7.068 0 0 0 1.515-4.332V6.401H9.7L7.519 8.589h4.653a4.782 4.782 0 0 1-5.748 3.574c-2.571-.604-4.164-3.188-3.563-5.768a4.778 4.778 0 0 1 7.407-2.826l.237-.237z"/></g></svg>
