<svg width="15" height="15" viewBox="0.038 0.038 25.514 25.514" xmlns="http://www.w3.org/2000/svg" preserveAspectRatio="xMidYMid"><path d="m10.786 11.864 0.922 0.918 -0.922 0.917H4.29v3.057L0.329 12.782l3.961 -3.907v2.99h6.496Zm2.855 -7.807H21.535v7.893H13.642V4.057Z" fill="#932279"/><path d="m13.727 10.786 -0.917 0.922 -0.917 -0.922V4.29h-3.058L12.81 0.329l3.907 3.961h-2.99v6.496Zm-0.085 2.855H21.535V21.535H13.642V13.642Z" fill="#EFA724"/><path d="m14.806 13.727 -0.922 -0.917 0.922 -0.917h6.496v-3.058l3.962 3.975 -3.962 3.907v-2.99h-6.496Zm-10.748 -0.085h7.893V21.535H4.057V13.642Z" fill="#262577"/><path d="m11.864 14.806 0.917 -0.922 0.918 0.922v6.496h3.057l-3.975 3.961 -3.907 -3.961h2.99v-6.496ZM4.057 4.057h7.893v7.893H4.057V4.057Z" fill="#9CCD2A"/><path d="M3.775 3.775h8.457v8.457H3.775V3.775Zm0.563 7.893H11.667V4.34H4.34v7.328ZM13.359 3.775h8.457v8.457H13.359V3.775Zm0.563 7.893h7.328V4.34H13.923v7.328Zm-0.563 1.692h8.457v8.457H13.359V13.36Zm0.563 7.893h7.328V13.925H13.923v7.328ZM3.775 13.36h8.457v8.457H3.775V13.36Zm0.563 7.893H11.667V13.925H4.34v7.328Z" fill="#FFF"/><path d="M6.02 18.775 0.04 12.796l5.978 -5.979 5.98 5.98 -5.98 5.98ZM0.837 12.796l5.182 5.182 5.182 -5.182 -5.182 -5.182 -5.182 5.182Zm11.96 -0.797 -5.98 -5.979L12.796 0.038l5.98 5.98 -5.98 5.98ZM7.613 6.02l5.182 5.182 5.182 -5.182 -5.182 -5.182 -5.182 5.182Zm11.96 12.757 -5.98 -5.98 5.98 -5.98 5.98 5.98 -5.98 5.98Zm-5.182 -5.98 5.182 5.182 5.182 -5.182 -5.182 -5.182 -5.182 5.182Zm-1.595 12.757 -5.98 -5.981 5.98 -5.98 5.98 5.98 -5.98 5.98Zm-5.183 -5.981 5.182 5.182 5.182 -5.182 -5.182 -5.182 -5.182 5.182Z" fill="#FFF"/></svg>
