<svg width="15" height="18.574" viewBox="0 0 15 18.574" xmlns="http://www.w3.org/2000/svg" preserveAspectRatio="xMidYMid"><g fill="#A80030"><path d="M8.953 9.81c-.308.004.058.159.46.22a4.06 4.06 0 0 0 .301-.259c-.25.061-.505.063-.761.039m1.651-.412c.183-.252.317-.529.364-.816-.041.205-.152.381-.256.567-.575.362-.054-.215 0-.435-.619.779-.085.467-.108.684m.61-1.586c.037-.554-.109-.379-.158-.167.057.03.102.39.158.167M7.786.24c.164.029.355.052.328.091.18-.04.221-.076-.328-.091m.328.091-.116.024.108-.01.008-.014"/><path d="M13.234 8.022c.019.498-.145.739-.293 1.167l-.266.133c-.217.422.021.268-.135.604-.339.302-1.03.945-1.252 1.004-.161-.004.11-.191.145-.264-.455.312-.365.469-1.06.658l-.021-.045c-1.715.807-4.097-.792-4.066-2.974-.018.139-.052.104-.09.16-.089-1.123.518-2.25 1.542-2.711 1.001-.495 2.175-.292 2.892.377-.394-.517-1.178-1.064-2.107-1.012-.911.014-1.762.593-2.046 1.221-.467.293-.521 1.131-.724 1.285-.274 2.009.514 2.878 1.847 3.899.21.141.059.163.087.27a3.614 3.614 0 0 1-1.181-.903c.177.259.368.511.614.708-.417-.141-.975-1.011-1.138-1.047.72 1.289 2.92 2.26 4.072 1.778-.533.02-1.21.011-1.809-.21-.252-.13-.594-.398-.533-.448 1.572.587 3.196.445 4.557-.646.346-.269.724-.728.833-.734-.165.247.028.119-.098.337.345-.556-.15-.226.356-.96l.187.258c-.069-.462.573-1.023.508-1.753.148-.223.165.241.008.754.217-.57.057-.661.113-1.131.06.158.14.326.18.492-.141-.55.145-.927.216-1.247-.07-.031-.218.244-.252-.407.005-.282.079-.148.107-.218-.055-.031-.201-.248-.29-.663.065-.098.172.253.259.267-.056-.33-.153-.582-.156-.835-.256-.534-.091.071-.298-.229-.271-.847.226-.197.259-.582.412.597.647 1.521.754 1.904a7.809 7.809 0 0 0-.377-1.357c.125.053-.201-.96.162-.289-.388-1.43-1.663-2.766-2.836-3.393.144.131.325.296.26.322-.583-.348-.481-.375-.564-.521-.475-.194-.506.015-.821 0C9.883.566 9.711.617 8.887.319l.037.175c-.593-.197-.691.075-1.332.001-.039-.031.205-.11.407-.14-.574.076-.547-.113-1.108.021.138-.097.284-.161.432-.244-.468.029-1.117.273-.917.051-.762.34-2.117.818-2.878 1.531l-.024-.16c-.348.419-1.519 1.249-1.612 1.791l-.094.022c-.181.307-.298.655-.442.971-.237.404-.348.155-.314.219-.466.945-.698 1.74-.898 2.391.143.214.003 1.284.057 2.14-.234 4.23 2.969 8.337 6.47 9.285.513.183 1.276.176 1.925.195-.766-.219-.865-.116-1.611-.376-.538-.254-.656-.543-1.037-.874l.151.267c-.748-.265-.435-.327-1.043-.52l.161-.21c-.242-.019-.642-.409-.751-.625l-.265.011c-.318-.393-.488-.676-.476-.896l-.085.153c-.097-.167-1.172-1.474-.615-1.17-.103-.094-.241-.154-.39-.425l.113-.13c-.268-.345-.493-.787-.476-.935.143.194.242.23.341.263-.678-1.681-.716-.093-1.229-1.711l.108-.009c-.083-.125-.133-.261-.2-.395l.047-.471c-.488-.564-.136-2.398-.066-3.404.049-.409.407-.844.68-1.527l-.166-.029c.317-.553 1.812-2.223 2.504-2.137.336-.422-.066-.002-.132-.108.737-.762.969-.539 1.466-.676.536-.318-.46.124-.206-.121.927-.237.657-.539 1.866-.659.128.073-.296.112-.402.207.772-.378 2.444-.292 3.53.209 1.26.589 2.675 2.33 2.731 3.967l.064.017c-.033.651.099 1.404-.129 2.096l.155-.328"/><path d="m5.595 10.232-.043.216c.202.275.362.572.62.787-.185-.363-.323-.512-.577-1.003m.478-.018c-.107-.119-.171-.261-.241-.403.067.249.206.464.335.682l-.094-.279m8.458-1.839-.045.113a5.485 5.485 0 0 1-.536 1.712c.303-.57.499-1.193.581-1.825M7.847.092C8.055.016 8.358.05 8.579 0c-.287.024-.574.039-.856.075l.124.017M.544 3.975c.048.444-.334.616.084.324.225-.505-.087-.14-.084-.324M.052 6.029c.097-.296.114-.473.151-.644-.267.34-.123.413-.151.644"/></g></svg>
