<svg width="15" height="15" viewBox="0 0 15 15" xmlns="http://www.w3.org/2000/svg" preserveAspectRatio="xMidYMid"><path d="M15 7.5a7.5 7.5 0 0 0-15-.005v5.804A1.705 1.705 0 0 0 1.705 15h5.797A7.5 7.5 0 0 0 15 7.5" fill="#294172"/><path d="M9.702 1.776a3.522 3.522 0 0 0-3.518 3.518v1.867h-1.86a3.522 3.522 0 0 0-3.518 3.518 3.522 3.522 0 0 0 3.518 3.519 3.522 3.522 0 0 0 3.518-3.518V8.812h1.859a3.522 3.522 0 0 0 3.518-3.518 3.522 3.522 0 0 0-3.518-3.518ZM6.197 10.68a1.875 1.875 0 0 1-1.873 1.872 1.874 1.874 0 0 1-1.872-1.872 1.875 1.875 0 0 1 1.872-1.873h1.86v.005h.013v1.868Zm3.505-3.513H7.843v-.005H7.83V5.294a1.875 1.875 0 0 1 1.872-1.873 1.875 1.875 0 0 1 1.873 1.873 1.875 1.875 0 0 1-1.873 1.872Z" fill="#3C6EB4"/><path d="M10.48 1.882a2.812 2.812 0 0 0-.778-.104 3.52 3.52 0 0 0-3.52 3.52v1.866H4.707a.82.82 0 1 0-.008 1.638H5.92c.145 0 .262.117.262.262v1.614a1.859 1.859 0 0 1-1.858 1.855c-.347 0-.433-.046-.67-.046-.498 0-.832.334-.832.792.001.38.325.706.724.811.273.071.483.104.777.104a3.52 3.52 0 0 0 3.52-3.52V8.808h1.474a.822.822 0 0 0 .831-.82.817.817 0 0 0-.822-.819H8.107a.263.263 0 0 1-.263-.262V5.295A1.859 1.859 0 0 1 9.702 3.44c.348 0 .433.046.67.046.498 0 .831-.334.831-.792 0-.38-.325-.706-.723-.811" fill="#FFF"/></svg>
