<svg width="23" height="5.054" viewBox="0 0 23 5.054" fill="none" xmlns="http://www.w3.org/2000/svg"><path fill-rule="evenodd" clip-rule="evenodd" d="M4.316 3.153a1.894 1.894 0 1 0-3.14.703l1.923-1.922.474.475.743.744Zm-.345.602-.872-.872-1.366 1.366a1.893 1.893 0 0 0 2.238-.494Z" fill="#10B981"/><path d="M5.589 3.514v-1.99h.972c.1 0 .192.015.276.046a.62.62 0 0 1 .218.127.548.548 0 0 1 .142.194.604.604 0 0 1-.056.585.637.637 0 0 1-.282.22l.441.818h-.461l-.39-.762h-.448v.762h-.412Zm.935-1.634h-.523v.533h.523a.32.32 0 0 0 .221-.073.244.244 0 0 0 .086-.193.246.246 0 0 0-.086-.194.32.32 0 0 0-.221-.073Zm.815.895a.757.757 0 0 1 .226-.546.814.814 0 0 1 .873-.165c.097.04.181.095.25.165a.742.742 0 0 1 .231.546.758.758 0 0 1-.231.546.8.8 0 0 1-.56.221.808.808 0 0 1-.563-.221.793.793 0 0 1-.167-.242.773.773 0 0 1-.059-.304Zm.789.43c.114 0 .21-.042.29-.126a.421.421 0 0 0 .12-.304.422.422 0 0 0-.12-.306.381.381 0 0 0-.29-.126.383.383 0 0 0-.29.126.426.426 0 0 0-.119.306c0 .12.04.221.119.304.08.084.177.126.29.126Zm1.767-.003a.438.438 0 0 0 .184-.04.522.522 0 0 0 .168-.126l.233.242a.831.831 0 0 1-.273.197.814.814 0 0 1-.329.067.794.794 0 0 1-.555-.221.781.781 0 0 1-.163-.242.773.773 0 0 1-.058-.304.756.756 0 0 1 .468-.711.836.836 0 0 1 .645.012.744.744 0 0 1 .276.193l-.239.253a.537.537 0 0 0-.17-.133.423.423 0 0 0-.197-.046.367.367 0 0 0-.283.126.43.43 0 0 0-.114.306c0 .121.039.223.117.304.08.081.176.123.29.123Zm.788.312v-1.99l.389-.086v1.221l.64-.626h.44l-.693.679.736.802h-.497l-.626-.676v.676h-.389Zm2.044.068.023-.054-.577-1.495h.429l.367 1.009.42-1.009h.422l-.683 1.598c-.076.178-.164.305-.265.38a.625.625 0 0 1-.392.114 1.08 1.08 0 0 1-.174-.017v-.334c.02.003.039.006.06.007a.837.837 0 0 0 .077.003.3.3 0 0 0 .176-.05.351.351 0 0 0 .117-.152Zm1.858-.068v-1.99h.218v1.794h1.187v.196h-1.405Zm1.78-1.697a.136.136 0 0 1-.099-.043.136.136 0 0 1-.042-.1c0-.039.014-.072.042-.099a.139.139 0 0 1 .099-.042c.04 0 .074.014.1.042a.13.13 0 0 1 .043.099.133.133 0 0 1-.043.1.129.129 0 0 1-.1.043Zm.106.273v1.424h-.21V2.09h.21Zm.359 1.424V2.09h.21v.167a.531.531 0 0 1 .196-.144.609.609 0 0 1 .253-.052c.161 0 .293.052.396.155a.531.531 0 0 1 .153.397v.901h-.207v-.858a.408.408 0 0 0-.109-.299.385.385 0 0 0-.29-.111.464.464 0 0 0-.23.057.444.444 0 0 0-.162.163v1.048h-.21Zm1.748-1.424v.859c0 .124.037.223.109.299.07.073.168.11.29.11a.434.434 0 0 0 .392-.222V2.09h.21v1.424h-.21v-.165a.534.534 0 0 1-.196.145.616.616 0 0 1-.252.048.54.54 0 0 1-.397-.153.534.534 0 0 1-.153-.397V2.09h.207Zm1.193 1.424.561-.734-.532-.69h.25l.403.535.405-.535h.241l-.526.688.562.736h-.249l-.434-.579-.442.579h-.239Zm1.552-1.508v-.309h-.103v-.059h.103v-.12l.069-.018v.138h.142v.059h-.142v.292c0 .024.004.043.016.055.011.011.03.015.056.015a.175.175 0 0 0 .035-.003.107.107 0 0 0 .034-.009v.061a.146.146 0 0 1-.04.01c-.016.003-.029.003-.043.003a.137.137 0 0 1-.095-.03c-.022-.019-.032-.047-.032-.085Zm.286.107v-.475h.071v.052a.178.178 0 0 1 .139-.062.167.167 0 0 1 .149.086.188.188 0 0 1 .071-.064.198.198 0 0 1 .092-.022c.052 0 .093.017.125.051a.182.182 0 0 1 .049.133v.301h-.069v-.287c0-.041-.01-.075-.033-.099a.113.113 0 0 0-.089-.037.128.128 0 0 0-.072.02.152.152 0 0 0-.054.058l.002.021c.001.007.003.014.003.023v.301h-.069v-.287a.148.148 0 0 0-.034-.099.114.114 0 0 0-.089-.037.131.131 0 0 0-.069.018.127.127 0 0 0-.052.051v.354h-.071Z" fill="#000"/></svg>
