<svg xmlns="http://www.w3.org/2000/svg" width="15" height="15" viewBox="0 0 1.157 1.157"><g fill-rule="evenodd" clip-rule="evenodd"><path fill="#fff" d="M0 0h1.157v1.157H0V0z"/><path d="M.095.868c.002.061.047.087.103.087.048 0 .097-.022.097-.077A.065.065 0 0 0 .247.816 1.313 1.313 0 0 1 .176.797C.159.793.147.783.147.766c0-.025.025-.032.045-.032.029 0 .05.012.053.043h.042C.287.726.245.699.193.699c-.044 0-.09.023-.09.072 0 .025.012.051.055.062.034.009.055.014.073.02.01.003.021.011.021.03C.252.901.237.92.2.92.165.92.138.905.138.867H.095zM.532.772H.493v.103C.493.903.482.923.45.923.428.923.415.912.415.881V.772H.376v.113c0 .046.02.069.067.069a.058.058 0 0 0 .05-.029h.001v.024h.038V.772zm.082.096c.001.061.047.087.102.087.049 0 .098-.022.098-.077A.065.065 0 0 0 .766.816 1.101 1.101 0 0 1 .695.797C.678.793.666.783.666.766c0-.025.025-.032.045-.032.029 0 .051.012.053.043h.043C.807.726.764.699.713.699.669.699.624.722.624.771c0 .025.012.051.054.062.034.009.056.014.074.02.01.003.02.011.02.03C.772.901.758.92.72.92.686.92.659.905.659.867H.616zM.9.95h.179V.914H.944V.842h.123V.807H.944V.743h.133V.706H.9v.245z" fill="#0c0e0f"/><path d="M.059.602.06.605c.019.051.055.072.115.068C.216.669.233.644.224.602L.172.601C.171.615.164.627.148.629H.146a.05.05 0 0 1-.04-.027L.058.601zm.068 0c.005.006.011.01.02.01a.01.01 0 0 0 .008-.01L.127.601zm.211 0c0 .009 0 .023.019.023.025 0 .025-.012.027-.022L.338.602zm.102 0c0 .017.003.023.018.025.019.002.023-.01.024-.016l.002-.01H.44zm.28 0c.003.01.003.027.027.025C.762.625.763.612.761.602H.72zm.098 0C.826.621.836.626.85.623.859.62.862.616.86.602H.818z" fill="#9dc14e"/><path d="M.053.527a.166.166 0 0 0 .006.074h.048A.066.066 0 0 1 .104.553L.105.551A.07.07 0 0 1 .124.526H.053zm.28 0L.338.6l.001.002h.046V.601C.386.551.386.544.388.527H.333zm.109 0C.443.53.442.535.441.539v.063L.485.601C.489.574.488.564.492.54L.494.526H.442zm.257 0 .02.072.002.003h.041L.761.593.752.53.751.527H.699zm.096 0 .017.058.006.016v.001H.86L.856.583S.842.548.85.528H.795zm-.64.075A.02.02 0 0 0 .153.589C.143.591.137.575.148.572.164.567.174.585.172.603L.224.602.221.59C.205.559.188.541.169.535l-.01.003C.143.541.129.543.12.56.116.578.118.593.128.602h.028z" fill="#9dc14e"/><path d="M.091.427a.248.248 0 0 0-.038.1h.07A.217.217 0 0 1 .157.515C.165.498.185.481.216.468.274.453.323.465.333.519v.008h.055L.389.52C.394.494.442.486.443.527h.052C.498.507.51.499.56.507c.034.01.055.005.101.001.033-.007.031.001.038.017L.7.527h.052C.748.504.768.461.795.524l.001.003h.055C.854.518.861.512.874.513.882.511.891.51.893.504.87.494.857.483.811.447.802.44.813.426.821.433c.058.045.073.06.125.073a.161.161 0 0 0 .152-.08h-.029a.31.31 0 0 1-.074.012.175.175 0 0 1-.042-.007.235.235 0 0 0-.014-.005H.091z" fill="#9dc14e"/><path d="M.938.427C.922.421.904.412.887.41.873.408.877.392.886.392.92.397.96.423.994.424c.048-.001.082-.016.112-.028C1.09.339 1.019.277.959.294.867.239.848.236.737.212A.88.88 0 0 0 .39.23C.311.257.251.272.147.362a.301.301 0 0 0-.055.066h.847zm.159 0 .006-.012c-.011.004-.022.009-.035.012h.029zM.989.307c.028 0 .055.021.055.048 0 .028-.028.047-.055.047S.943.379.943.351c0-.027.018-.044.046-.044zm.004.012a.036.036 0 0 0-.037.036c0 .019.016.035.037.035S1.03.374 1.03.355A.036.036 0 0 0 .993.319zm.003.012c.014 0 .02.01.02.023S1.009.377.995.377C.982.377.968.369.968.355c0-.013.015-.024.028-.024zM.993.345a.01.01 0 0 0-.01.01c0 .006.004.011.01.011s.011-.005.011-.011c0-.005-.005-.01-.011-.01z" fill="#9dc14e"/><path d="M.252.639h.824v.027H.242s.01-.01.01-.027z" fill="#0c0e0f"/></g></svg>
