<svg id="Livello_1" data-name="Livello 1" xmlns="http://www.w3.org/2000/svg" viewBox="0 0 178.36 183.21"><defs><style>.cls-1{fill:#ffb516;}.cls-2{fill:#fe6309;}.cls-3{fill:#d70000;}</style></defs><title>Ubuntu_Linux_logo</title><path class="cls-1" d="M208.94,319.38a44.2,44.2,0,0,1,17-34.86l-15.8-25.28a74.15,74.15,0,0,0-27.9,39.28,26.64,26.64,0,0,1,.8,44.29A74.2,74.2,0,0,0,210.76,380l14.68-26.11A44.21,44.21,0,0,1,208.94,319.38Z" transform="translate(-148.68 -229.83)"/><path class="cls-2" d="M187,320.93a19.15,19.15,0,1,1-19.15-19.15A19.15,19.15,0,0,1,187,320.93Z" transform="translate(-148.68 -229.83)"/><path class="cls-3" d="M294.58,367.26a26.52,26.52,0,0,1,12.34,3A73.66,73.66,0,0,0,327,324.53L297.28,324a44.3,44.3,0,0,1-61.9,36L220.59,385.8a73.63,73.63,0,0,0,32.64,7.58,74.44,74.44,0,0,0,14.8-1.49A26.62,26.62,0,0,1,294.58,367.26Z" transform="translate(-148.68 -229.83)"/><path class="cls-1" d="M313.74,393.89a19.16,19.16,0,1,1-19.16-19.16A19.15,19.15,0,0,1,313.74,393.89Z" transform="translate(-148.68 -229.83)"/><path class="cls-2" d="M309,270.72A26.63,26.63,0,0,1,267,249c0-.77,0-1.54.1-2.3a74.94,74.94,0,0,0-13.82-1.29,73.67,73.67,0,0,0-32.94,7.72L235,279a44.3,44.3,0,0,1,62.2,35.22l29.76-.9A73.6,73.6,0,0,0,309,270.72Z" transform="translate(-148.68 -229.83)"/><path class="cls-3" d="M312.74,249a19.16,19.16,0,1,1-19.16-19.15A19.16,19.16,0,0,1,312.74,249Z" transform="translate(-148.68 -229.83)"/></svg>